<svg xmlns="http://www.w3.org/2000/svg" width="64" height="64" viewBox="0 0 64 64"><path d="M50.752 3.09C50.427.33 43.932 0 40.23 0s-7.6.395-12.6 3.09c-5.002 2.698-6.756 7.434-7.406 10.328s.13 11.313.13 11.51c0 .198-3.897.198-5.39.264-1.495.066-1.82.724-1.95 1.118-.13.395.65 11.38.65 11.38l.455 3.946c.842.46 5 .263 5.714.395.714.134.974 1.12 1.04 3.883.064 2.763.454 13.353.52 15.523.064 2.17 1.038 2.17 3.377 2.236s11.367.33 11.886.33c.52 0 1.04-.658 1.04-2.697 0-2.04.65-19.207.713-19.6.064-.396 1.43 0 2.597 0s6.755-.396 7.73-.527c.973-.132 1.363-10.393 1.363-13.747s-2.142-3.486-3.506-3.552c-1.364-.066-7.86.197-8.25-.066s1.235-5.393 3.38-6.445c2.142-1.052 7.404-.46 8.053-.33.65.133 1.104-1.38 1.17-2.564.065-1.183.13-8.616-.195-11.38V3.09zm-4.644 22.004c.195 0 1.137 1.052 1.396 1.48s-.13 1.184-.227 1.25-1.17-1.776-1.332-2.04c-.162-.263.033-.69.163-.69zm3.345-12.4c-.585.067-6.365-.525-9.613.66-3.248 1.183-5.066 4.538-5.26 6.38-.196 1.84-.26 5.26.26 5.26s5.13.1 6.884.165c1.754.064 2.696-.035 2.858.195.162.23 2.63 3.75 2.598 3.98s-.26 1.413-.39 1.25-2.436-4.21-2.598-4.046c-.162.163-.585.79-.292 1.216.292.428 2.76 4.177 2.728 4.34-.032.165-.325 1.053-.487.823-.16-.23-2.953-5.066-3.116-5-.162.066-.617.69-.39 1.085.227.395 3.248 4.637 3.28 4.867.032.23-.032 1.973-.227 1.908s-2.923-5.228-3.378-5.228c-.456 0-.618.888-.358 1.217.26.327 3.476 5.096 3.476 5.194s-.747.56-1.007.362c-.26-.197-2.89-5.262-3.15-5.262-.26 0-.974.33-.747.69.227.363 2.76 4.474 2.63 4.507-.13.034-.616.198-.973-.196-.358-.395-2.404-4.012-2.664-3.947s-.747.625-.487.954 2.53 3.19 2.27 3.257c-.26.066-1.56.033-1.655-.1-.097-.13-1.396-2.696-1.69-2.696-.29 0-.68.46-.52.757.163.296 1.17 1.908 1.073 1.908-.098 0-3.02-.164-3.12.197-.096.362.163 2.795 0 2.697-.16-.1-1.46-2.73-1.655-2.73s-.552.755-.422 1.084c.13.33 2.144 2.795 2.21 3.06.065.262.065 2.202-.065 1.94-.13-.264-2.078-3.717-2.208-3.652-.13.066-.455.954-.39 1.15s2.663 3.882 2.728 4.145c.065.263.097 2.763-.032 2.565-.13-.197-2.923-5.525-3.15-5.492-.227.034-.422 1.152-.292 1.514s3.314 5.262 3.346 5.525c.032.26.065 1.577-.065 1.48s-3.54-6.415-3.7-6.316c-.163.1-.293 1.02-.196 1.414s3.897 6.313 3.93 6.445c.032.132-.032 2.763-.162 2.63-.13-.13-3.962-6.905-4.19-6.873-.226.033-.39 1.217-.226 1.513.162.296 4.482 6.48 4.514 6.808.033.33.163 1.94 0 1.876-.16-.066-4.708-7.73-4.87-7.696-.162.033-.39 1.052-.325 1.283.065.23 5.13 7.926 5.13 8.19s-.03.492-.324.492c-.29 0-.615.033-.907-.263s-4.482-7.268-4.774-7.202-.358 1.184-.26 1.546c.096.362 4.546 5.953 4.383 6.02-.162.065-6.04-.363-6.495-.363-.455 0-.844-.132-.844-.132s.195-.262-.357-.854-1.364-1.546-1.72-1.316c-.358.23-.228.625 0 .855.226.23 1.136.92.973 1.052-.163.13-2.502-.034-2.6-.264-.096-.23-.13-9.67-.194-12.958-.065-3.29-.227-7.992-.942-8.485-.714-.493-6.04-.625-6.333-.92-.23-.234-.907-10.722-.52-10.788.39-.066 5.393.132 6.237-.395.844-.526 1.04-1.447.91-2.63-.13-1.185-.91-9.407.584-12.564s4.483-6.183 9.094-8.025C35.814.92 41.53 1.05 45.494 1.578c3.96.526 4.35 1.25 4.416 3.157.063 1.91.128 7.895-.457 7.96zM22.725 26.18c-.227.032-.195.986-.195 1.347 0 .362-2.11.132-2.63.1-.52-.034-1.026.106-.943.525.032.164 0 .56.195.658.195.1 4.222.132 4.612.132s.292-2.04.227-2.5c-.062-.46-1.037-.296-1.265-.262zm6.04-19.274c-1.038.526-2.987 2.105-4.188 4.11-1.202 2.007-1.526 3.52-1.56 4.836-.03 1.316.19 2.184.423 2.302.26.132.617-.033.91-.033.29 0-.033-3.78 1.688-6.773 1.72-2.993 4.19-3.716 4.612-3.75.422-.032.357-.657.26-1.117-.098-.462-1.105-.1-2.145.426zm7.762 6.38c-.26-.065-1.396.297-1.98.89-.586.59-1.69 2.498-1.885 3.123-.195.623-.104 1.51.227 1.642.323.132.68 0 .907-.164.227-.165.227-1.48.747-2.6.52-1.117 2.11-1.84 2.273-1.972.164-.132-.03-.855-.29-.92zM44.094 2.83c-.578-.11-.844 1.02-.552 1.15.292.133 2.273.43 2.825.494.552.066.91.033 1.04.395s-.033 3.65.194 3.814c.23.164 1.204.493 1.204-.362s.13-4.374-.26-4.703-3.767-.658-4.45-.79zM25.518 55.712c-.393.106-.52.362-.162 1.052.357.69 2.5 3.09 2.825 3.09.327 0 .814-.394.49-.82-.326-.428-2.664-3.453-3.15-3.322h-.002zm2.24-1.085c-.13-.1-.713.56-.584.79 0 0 2.696 3.55 3.053 4.044s.714.594 1.072.397c.355-.197-.13-.79-.39-1.316s-3.02-3.813-3.15-3.912h-.002z"/></svg>